<?xml version="1.0" encoding="UTF-8"?>
<svg version="1.1" viewBox="0 0 2048 2048" width="1280" height="1280" xmlns="http://www.w3.org/2000/svg">
<path transform="translate(1208,560)" d="m0 0h361l10 3 9 6 6 8 4 10v15l-5 12-19 38-10 19-45 90-10 19-35 70-10 19-35 70-10 19-35 70-10 19-35 70-10 19-35 70-10 19-35 70-10 19-35 70-10 19-32 64-6 8-7 6-9 4-4 1h-407l9-19 445-890 9-10 6-4z" fill="#2E67DD"/>
<path transform="translate(477,888)" d="m0 0h339l11 4 8 6 6 9 3 9v13l-5 13-12 23-33 66-10 19-33 66-10 19-33 66-10 19-34 68-10 19-7 14-3-3-27-54-10-19-40-80-10-19-40-80-9-17-41-82-10-19-7-15-1-4v-14l5-12 6-7 10-6z" fill="#2E67DD"/>
</svg>
