<?xml version="1.0" encoding="UTF-8"?>
<svg version="1.1" viewBox="0 0 2238 626" width="1280" height="1280" xmlns="http://www.w3.org/2000/svg">
<path transform="translate(526)" d="m0 0h236l10 4 8 8 4 9 1 4v8l-3 10-22 44-10 19-35 70-10 19-35 70-10 19-36 72-10 19-35 70-10 19-35 70-10 19-28 56-8 9-10 5-5 1h-270l1-5 302-604 9-10 8-4z" fill="#fff"/>
<path transform="translate(945,263)" d="m0 0h33l21 3 15 4 15 6 13 7 13 10 12 12 9 14 5 10 5 16 2 11v8h-78l-4-14-6-10-8-7-14-7-7-2-8-1h-13l-14 3-10 5-7 7-4 8-2 6v20l4 10 5 6 10 7 16 8 40 13 36 12 20 9 11 7 11 9 11 12 8 14 5 14 2 11v28l-4 18-6 15-8 13-11 13-13 11-17 10-15 6-21 5-18 2h-24l-24-3-19-5-16-6-16-9-11-9-12-12-10-15-6-14-4-15-1-7v-11h76l1 1 3 15 6 12 8 8 8 5 13 4 6 1h17l12-2 11-4 9-7 6-7 4-9 1-4v-17l-4-11-9-10-10-7-19-8-25-8-26-8-23-8-18-8-12-8-12-11-8-9-8-15-4-13-2-13v-24l4-20 5-12 6-11 8-10 11-11 14-9 14-7 21-7 16-3z" fill="#fff"/>
<path transform="translate(1975,247)" d="m0 0h71l1 210 11-14 13-16 10-13 12-15 22-28 12-15 11-14 1-1h93l-6 8-12 13-9 11-13 14-9 11-12 13-9 11-13 14-9 11-12 13-9 11-9 10 6 8 14 15 7 8 9 10 7 8 18 20 7 8 9 10 7 8 18 20 7 8 9 10 5 7h-93l-14-17-11-14-13-16-10-13-13-16-11-14-13-16-8-11-1 117h-71z" fill="#fff"/>
<path transform="translate(1463,336)" d="m0 0h25l21 3 21 6 16 7 15 9 10 8 10 9 8 9 9 13 7 12 8 20 5 21 2 18v19l-2 19-4 17-7 19-10 18-9 12-11 12-10 9-15 10-16 8-17 6-17 4-17 2h-23l-22-3-15-4-16-6-15-8-16-12-15-15-10-14-8-14-8-21-4-18-2-16v-28l3-21 5-19 8-18 9-15 11-13 12-12 14-10 16-9 21-8 17-4zm-1 63-15 4-11 6-11 9-9 11-7 14-4 15-1 6v34l4 19 5 12 7 10 6 7 11 8 12 6 12 3h24l15-4 14-7 12-11 8-10 7-15 4-15 1-7v-27l-3-16-5-13-7-12-14-14-14-8-11-4-5-1z" fill="#fff"/>
<path transform="translate(44,220)" d="m0 0h207l10 3 8 6 6 9 2 6v12l-4 10-32 64-10 19-33 66-10 19-34 68-6 11-3-3-43-86-10-19-40-80-10-19-22-44-2-6v-12l4-10 7-8 10-5z" fill="#fff"/>
<path transform="translate(1779,336)" d="m0 0h25l17 2 21 5 19 8 14 9 10 8 13 13 9 13 9 17 6 17 1 8h-76l-8-15-9-10-12-8-12-4-6-1h-18l-16 4-11 6-9 8-7 10-6 12-4 14-2 12v33l3 17 5 15 8 13 4 4v2l4 2 10 7 13 5 5 1h24l12-3 12-6 7-6 9-14 3-8h78l-5 17-7 16-10 16-12 13-9 9-14 10-16 8-17 6-20 4-11 1h-23l-22-3-21-6-19-9-14-10-10-9-10-10-11-16-8-16-6-16-4-17-2-14v-38l4-24 7-21 8-16 10-15 11-12 7-7 14-10 19-10 21-7 15-3z" fill="#fff"/>
<path transform="translate(1165,271)" d="m0 0h70l1 1v69h63v58l-1 1h-62l1 142 4 11 8 5 9 2 41 1v60h-61l-18-3-14-5-11-6-11-9-8-11-6-12-4-14-2-14v-147h-33v-59h33v-69z" fill="#fff"/>
</svg>
