<?xml version="1.0" encoding="UTF-8"?>
<svg version="1.1" viewBox="0 0 3086 3086" width="1280" height="1280" xmlns="http://www.w3.org/2000/svg">
<path transform="translate(1818,844)" d="m0 0h548l13 4 10 6 9 9 7 12 3 9 1 6v12l-3 12-10 21-10 19-35 70-10 19-35 70-10 19-35 70-10 19-36 72-10 19-35 70-10 19-35 70-10 19-35 70-10 19-36 72-10 19-35 70-10 19-35 70-10 19-35 70-10 19-36 72-10 19-35 70-10 19-35 70-10 19-6 11-9 10-10 7-10 4-5 1h-615l9-19 675-1350 7-9 7-7 12-7z" fill="#fff"/>
<path transform="translate(718,1338)" d="m0 0h512l13 4 11 7 9 10 7 14 2 7v19l-4 13-11 22-10 19-34 68-10 19-33 66-10 19-34 68-10 19-33 66-10 19-34 68-10 19-33 66-10 19-11 22h-2l-12-24-10-19-40-80-10-19-41-82-10-19-40-80-10-19-40-80-10-19-40-80-10-19-21-42-3-11v-16l3-12 6-11 7-8 10-7 12-5z" fill="#fff"/>
</svg>
