<?xml version="1.0" encoding="UTF-8"?>
<svg version="1.1" viewBox="0 0 2048 572" width="1280" height="1280" xmlns="http://www.w3.org/2000/svg">
<path transform="translate(482)" d="m0 0h214l10 4 5 4 5 8 2 7v7l-3 10-9 17-35 70-10 19-26 52-10 19-32 64-10 19-32 64-10 19-27 54-10 19-31 62-10 19-10 20-6 7-10 5h-251l9-19 69-138 10-19 190-380 7-8 8-4z" fill="#2E67DD"/>
<path transform="translate(876,240)" d="m0 0 24 1 17 3 16 5 12 5 14 9 12 11 9 10 6 10 6 15 3 14 1 9h-72l-3-12-6-10-10-8-11-5-10-2h-17l-11 3-10 5-7 8-4 12v16l3 8 4 6 10 8 14 7 30 10 32 10 24 10 12 7 11 9 7 7 7 10 6 12 3 12 1 7v23l-3 16-5 12-7 13-11 13-10 9-14 9-17 7-15 4-13 2h-38l-19-3-17-5-21-10-12-9-6-5-9-11-7-11-5-11-4-17-1-13 69-1 1 1 3 14 5 10 7 8 8 5 14 4h24l12-3 9-5 6-5 6-10 2-7v-16l-4-10-9-10-14-8-25-9-36-11-24-9-16-8-10-8-6-5-9-11-7-14-4-16-1-10v-14l3-18 5-14 7-12 9-11 9-8 13-8 15-7 21-6 13-2z" fill="#2E67DD"/>
<path transform="translate(1807,226)" d="m0 0h65l1 192 10-12 13-17 14-17 10-13 13-16 7-9 11-14 6-8h85l-6 7-9 10-9 11-12 13-9 11-13 14-9 11-13 14-9 11-12 13-9 11v4l10 11 7 8 9 10 7 8 11 12 7 8 12 14 14 15 7 8 9 10 7 8 9 10 1 3h-84l-11-14-13-16-11-14-12-15-11-14-13-16-11-14-3-4-1 107h-65z" fill="#2E67DD"/>
<path transform="translate(1346,307)" d="m0 0 22 1 21 4 17 6 19 10 12 9 13 12 11 15 9 16 7 19 4 19 1 10v23l-3 21-5 16-5 12-6 11-7 10-9 11-8 8-15 11-21 11-15 5-22 4h-35l-17-3-17-5-19-9-11-8-14-12-10-12-10-16-7-16-5-19-2-12-1-12v-15l2-18 4-18 6-16 8-15 9-12 10-11 11-9 16-10 15-7 21-6 12-2zm-7 57-13 3-13 7-10 9-7 8-7 14-4 16-1 8v22l3 17 4 12 6 10 9 10 9 7 11 5 13 3h19l13-3 14-7 10-8 8-10 8-16 4-17v-29l-3-14-5-13-9-13-11-10-11-6-11-4-6-1z" fill="#2E67DD"/>
<path transform="translate(37,202)" d="m0 0h196l10 5 7 8 3 7v13l-11 23-8 15-8 17-10 19-22 44-10 19-24 48-10 19-14 28-3-1-39-78-10-19-30-60-14-27-22-44-1-3v-13l5-10 8-7z" fill="#2E67DD"/>
<path transform="translate(1635,307)" d="m0 0 23 1 17 3 17 5 21 11 11 9 14 14 10 15 8 18 4 13v2h-70l-7-14-7-8-12-8-13-4-15-1-14 2-12 5-8 6-8 8-8 15-4 13-2 12v30l3 17 5 13 5 9 9 10 10 7 12 4 6 1h18l16-4 11-7 8-9 7-14h70l-2 9-8 19-9 15-13 15-12 10-11 7-17 8-13 4-18 3h-35l-17-3-16-5-17-8-14-10-12-11-11-14-9-15-8-21-4-19-1-9v-33l3-20 5-17 9-19 8-12 11-13 13-11 11-7 16-8 16-5 17-3z" fill="#2E67DD"/>
<path transform="translate(1066,248)" d="m0 0h64l1 1v63h57v53h-57l1 132 4 9 6 4 9 2 37 1v54h-57l-16-3-13-5-10-6-10-9-7-10-5-12-4-17-1-12v-128h-30v-53h30v-63z" fill="#2E67DD"/>
</svg>
